<?xml version="1.0" encoding="UTF-8" standalone="no"?>
<svg
   id="Слой_1"
   data-name="Слой 1"
   viewBox="0 0 2168.4001 2868.5999"
   version="1.1"
   sodipodi:docname="hotel_88552.svg"
   width="2168.4001"
   height="2868.5999"
   xmlns:inkscape="http://www.inkscape.org/namespaces/inkscape"
   xmlns:sodipodi="http://sodipodi.sourceforge.net/DTD/sodipodi-0.dtd"
   xmlns="http://www.w3.org/2000/svg"
   xmlns:svg="http://www.w3.org/2000/svg">
  <sodipodi:namedview
     id="namedview15"
     pagecolor="#ffffff"
     bordercolor="#cccccc"
     borderopacity="1"
     inkscape:showpageshadow="0"
     inkscape:pageopacity="1"
     inkscape:pagecheckerboard="0"
     inkscape:deskcolor="#d1d1d1" />
  <defs
     id="defs1">
    <style
       id="style1">.cls-1{fill:none;stroke:#15173f;stroke-linecap:round;stroke-linejoin:round;stroke-width:1.15px;}</style>
  </defs>
  <title
     id="title1">hotel</title>
  <path
     class="cls-1"
     d="m -653.84002,-398.97002 v 0 a 2.6,2.6 0 0 1 2.6,2.6 v 9.06 h -5.2 v -9.06 a 2.6,2.6 0 0 1 2.6,-2.6 z"
     id="path1"
     style="fill:none;stroke:#ffffff;stroke-opacity:1" />
  <path
     class="cls-1"
     d="m -633.02002,-398.97002 v 0 a 2.6,2.6 0 0 1 2.6,2.6 v 9.06 h -5.2 v -9.06 a 2.6,2.6 0 0 1 2.6,-2.6 z"
     id="path2"
     style="fill:none;stroke:#ffffff;stroke-opacity:1" />
  <rect
     class="cls-1"
     x="-661.11005"
     y="-427.60004"
     width="34.990002"
     height="40.290001"
     id="rect2"
     style="fill:none;stroke:#ffffff;stroke-opacity:1" />
  <rect
     class="cls-1"
     x="-655.39001"
     y="-433.96002"
     width="23.57"
     height="6.3600001"
     id="rect3"
     style="fill:none;stroke:#ffffff;stroke-opacity:1" />
  <path
     class="cls-1"
     d="m -643.58002,-398.97002 a 4.15,4.15 0 0 0 -4.11,4.19 v 7.48 h 8.22 v -7.49 a 4.15,4.15 0 0 0 -4.11,-4.18 z"
     id="path3"
     style="fill:none;stroke:#ffffff;stroke-opacity:1" />
  <line
     class="cls-1"
     x1="-639.92004"
     y1="-414.68002"
     x2="-639.92004"
     y2="-411.99002"
     id="line3"
     style="fill:none;stroke:#ffffff;stroke-opacity:1" />
  <line
     class="cls-1"
     x1="-646.94"
     y1="-411.99002"
     x2="-646.94"
     y2="-414.68002"
     id="line4"
     style="fill:none;stroke:#ffffff;stroke-opacity:1" />
  <line
     class="cls-1"
     x1="-639.92004"
     y1="-422.30002"
     x2="-639.92004"
     y2="-419.84003"
     id="line5"
     style="fill:none;stroke:#ffffff;stroke-opacity:1" />
  <line
     class="cls-1"
     x1="-646.94"
     y1="-419.84003"
     x2="-646.94"
     y2="-422.30002"
     id="line6"
     style="fill:none;stroke:#ffffff;stroke-opacity:1" />
  <line
     class="cls-1"
     x1="-632.90002"
     y1="-411.99002"
     x2="-632.90002"
     y2="-414.68002"
     id="line7"
     style="fill:none;stroke:#ffffff;stroke-opacity:1" />
  <line
     class="cls-1"
     x1="-632.90002"
     y1="-419.84003"
     x2="-632.90002"
     y2="-422.30002"
     id="line8"
     style="fill:none;stroke:#ffffff;stroke-opacity:1" />
  <line
     class="cls-1"
     x1="-653.96002"
     y1="-414.68002"
     x2="-653.96002"
     y2="-411.99002"
     id="line9"
     style="fill:none;stroke:#ffffff;stroke-opacity:1" />
  <line
     class="cls-1"
     x1="-639.92004"
     y1="-406.71002"
     x2="-639.92004"
     y2="-404.03003"
     id="line10"
     style="fill:none;stroke:#ffffff;stroke-opacity:1" />
  <line
     class="cls-1"
     x1="-646.94"
     y1="-404.03003"
     x2="-646.94"
     y2="-406.71002"
     id="line11"
     style="fill:none;stroke:#ffffff;stroke-opacity:1" />
  <line
     class="cls-1"
     x1="-632.90002"
     y1="-404.03003"
     x2="-632.90002"
     y2="-406.71002"
     id="line12"
     style="fill:none;stroke:#ffffff;stroke-opacity:1" />
  <line
     class="cls-1"
     x1="-653.96002"
     y1="-406.71002"
     x2="-653.96002"
     y2="-404.03003"
     id="line13"
     style="fill:none;stroke:#ffffff;stroke-opacity:1" />
  <line
     class="cls-1"
     x1="-653.96002"
     y1="-422.30002"
     x2="-653.96002"
     y2="-419.84003"
     id="line14"
     style="fill:none;stroke:#ffffff;stroke-opacity:1" />
  <line
     class="cls-1"
     x1="-650.39001"
     y1="-430.78003"
     x2="-636.83002"
     y2="-430.78003"
     id="line15"
     style="fill:none;stroke:#ffffff;stroke-opacity:1" />
</svg>
