<?xml version="1.0" encoding="UTF-8" standalone="no"?>
<svg
   viewBox="0 0 193745.23 207261.51"
   version="1.1"
   id="svg12"
   sodipodi:docname="4053436-fast-food-gastronomy-hamburguer-kitchen-restaurant_113462.svg"
   inkscape:export-filename="andina-app\public\img\iconComida.svg"
   inkscape:export-xdpi="96"
   inkscape:export-ydpi="96"
   width="193745.23"
   height="207261.52"
   xmlns:inkscape="http://www.inkscape.org/namespaces/inkscape"
   xmlns:sodipodi="http://sodipodi.sourceforge.net/DTD/sodipodi-0.dtd"
   xmlns="http://www.w3.org/2000/svg"
   xmlns:svg="http://www.w3.org/2000/svg">
  <sodipodi:namedview
     id="namedview12"
     pagecolor="#ffffff"
     bordercolor="#cccccc"
     borderopacity="1"
     inkscape:showpageshadow="0"
     inkscape:pageopacity="1"
     inkscape:pagecheckerboard="0"
     inkscape:deskcolor="#d1d1d1" />
  <defs
     id="defs1">
    <style
       id="style1">.cls-1{fill:#173156;}</style>
  </defs>
  <title
     id="title1" />
  <g
     data-name="Capa 2"
     id="Capa_2"
     style="fill:#ffffff"
     inkscape:export-filename="andina-app\public\img\iconComida.svg"
     inkscape:export-xdpi="96"
     inkscape:export-ydpi="96"
     transform="translate(-12287.442,-34660.45)">
    <g
       id="Outline"
       style="fill:#ffffff">
      <g
         id="Hamburguer"
         style="fill:#ffffff">
        <path
           class="cls-1"
           d="m 232.64,156.37 a 4.93,4.93 0 0 0 3.6,1.57 5.17,5.17 0 0 0 1.58,-0.26 4.92,4.92 0 0 0 3.38,-4.13 c 2,-16.4 1.61,-17.57 1.3,-18.52 a 11.53,11.53 0 0 0 -21.9,7.2 c 0.31,0.95 0.7,2.13 12.04,14.14 z m -5.13,-19.78 a 4.47,4.47 0 0 1 2.62,-2.26 4.54,4.54 0 0 1 5.63,2.63 c 0,1.08 -0.22,4.61 -1,11.44 -4.68,-5 -7,-7.72 -7.59,-8.62 a 4.47,4.47 0 0 1 0.34,-3.19 z"
           id="path1"
           style="fill:#ffffff" />
        <path
           class="cls-1"
           d="m 97.48,134 a 3.89,3.89 0 0 0 1.24,0.15 c 1.66,0 5.59,-0.47 17.15,-2.65 v 0 a 5,5 0 0 0 2.25,-8.73 C 105.39,112.24 104.19,111.93 103.23,111.68 A 11.53,11.53 0 0 0 97.48,134 Z M 96,121.66 a 4.54,4.54 0 0 1 4.39,-3.4 4.26,4.26 0 0 1 0.86,0.09 c 0.93,0.55 3.77,2.67 9.09,7 -6.76,1.22 -10.26,1.7 -11.35,1.74 A 4.53,4.53 0 0 1 96,121.66 Z"
           id="path2"
           style="fill:#ffffff" />
        <path
           class="cls-1"
           d="m 95.35,214.09 a 11.46,11.46 0 0 0 5.3,-1.3 c 0.89,-0.46 2,-1 12,-14.17 a 5,5 0 0 0 -4.17,-8 c -16.51,0.69 -17.6,1.26 -18.49,1.72 a 11.53,11.53 0 0 0 5.35,21.75 z M 91,201.2 a 4.54,4.54 0 0 1 2,-2.52 c 1.06,-0.21 4.58,-0.53 11.45,-0.87 -4.21,5.43 -6.5,8.14 -7.28,8.89 A 4.53,4.53 0 0 1 91,201.2 Z"
           id="path3"
           style="fill:#ffffff" />
        <path
           class="cls-1"
           d="m 344.35,220.93 a 11.55,11.55 0 0 0 10.25,6.2 11.35,11.35 0 0 0 5.3,-1.31 c 0.88,-0.46 2,-1 12,-14.16 a 5,5 0 0 0 -4.17,-8 c -16.5,0.68 -17.6,1.26 -18.49,1.72 a 11.54,11.54 0 0 0 -4.89,15.55 z m 7.9,-9.21 c 1.06,-0.21 4.58,-0.53 11.45,-0.87 -4.21,5.43 -6.5,8.13 -7.28,8.89 a 4.53,4.53 0 0 1 -4.17,-8 z"
           id="path4"
           style="fill:#ffffff" />
        <path
           class="cls-1"
           d="m 174.6,175.42 a 4.92,4.92 0 0 0 -0.92,5.26 c 6.32,15.26 7.24,16.1 8,16.77 a 11.46,11.46 0 0 0 7.75,3 H 190 a 11.53,11.53 0 0 0 7.23,-20 c -0.73,-0.67 -1.65,-1.5 -17.43,-6.39 a 4.93,4.93 0 0 0 -5.2,1.36 z m 18.06,10.36 a 4.52,4.52 0 0 1 -3,7.67 4.45,4.45 0 0 1 -3.06,-1 c -0.56,-0.92 -2.07,-4.12 -4.75,-10.45 6.52,2.09 9.84,3.3 10.81,3.78 z"
           id="path5"
           style="fill:#ffffff" />
        <path
           class="cls-1"
           d="m 168.56,117.85 h 0.05 A 4.93,4.93 0 0 0 173.1,115 c 7.17,-14.88 7.18,-16.12 7.19,-17.11 A 11.54,11.54 0 0 0 168.88,86.24 h -0.11 a 11.53,11.53 0 0 0 -11.53,11.41 c 0,1 0,2.24 6.84,17.26 a 4.93,4.93 0 0 0 4.48,2.94 z m 0.21,-24.58 v 0 a 4.54,4.54 0 0 1 4.48,4.3 c -0.32,1 -1.69,4.3 -4.63,10.51 -2.81,-6.27 -4.11,-9.56 -4.41,-10.6 a 4.54,4.54 0 0 1 4.56,-4.21 z"
           id="path6"
           style="fill:#ffffff" />
        <path
           class="cls-1"
           d="m 334.61,150.76 h 0.05 a 4.94,4.94 0 0 0 4.49,-2.81 c 7.17,-14.89 7.18,-16.13 7.19,-17.12 a 11.54,11.54 0 0 0 -11.41,-11.65 h -0.12 a 11.54,11.54 0 0 0 -11.52,11.41 c 0,1 0,2.24 6.84,17.26 a 4.93,4.93 0 0 0 4.48,2.91 z m 0.25,-24.58 a 4.54,4.54 0 0 1 4.48,4.3 c -0.32,1 -1.69,4.3 -4.63,10.51 -2.81,-6.27 -4.12,-9.56 -4.41,-10.6 a 4.54,4.54 0 0 1 4.56,-4.21 z"
           id="path7"
           style="fill:#ffffff" />
        <path
           class="cls-1"
           d="m 278.23,197 a 5,5 0 0 0 5.33,-0.27 c 13.49,-9.54 14.1,-10.62 14.59,-11.48 a 11.53,11.53 0 0 0 -4.33,-15.72 v 0 a 11.52,11.52 0 0 0 -15.72,4.34 c -0.49,0.86 -1.1,1.94 -2.38,18.41 a 4.93,4.93 0 0 0 2.51,4.72 z m 6.1,-19.91 a 4.53,4.53 0 0 1 7.86,4.46 c -0.78,0.75 -3.56,2.94 -9.14,6.95 0.59,-6.88 1.03,-10.39 1.28,-11.44 z"
           id="path8"
           style="fill:#ffffff" />
        <path
           class="cls-1"
           d="m 246.15,90.29 c 0.74,0.66 1.67,1.48 17.53,6.1 a 5,5 0 0 0 6,-6.76 c -6.57,-15.15 -7.5,-16 -8.25,-16.63 a 11.53,11.53 0 0 0 -16.27,1 11.54,11.54 0 0 0 0.99,16.29 z m 4.22,-11.64 a 4.54,4.54 0 0 1 6.18,-0.58 c 0.58,0.92 2.15,4.09 4.93,10.38 -6.58,-2 -9.92,-3.14 -10.9,-3.59 a 4.54,4.54 0 0 1 -0.21,-6.21 z"
           id="path9"
           style="fill:#ffffff" />
        <path
           class="cls-1"
           d="M 408.16,378.33 H 401 c 7.47,-7.78 14,-17.26 14,-32.52 a 52.84,52.84 0 0 0 -0.69,-8.55 c 16.23,-1.78 25.82,-18.44 25.82,-34.59 0,-18.18 -11.81,-30.87 -28.71,-30.87 h -6.15 V 253.53 A 37.2,37.2 0 0 0 420.19,243 36.58,36.58 0 0 0 428.47,213.38 C 418,149.13 377.58,92.61 320.15,61.63 L 326.56,44 392,68.49 a 3.49,3.49 0 0 0 4.4,-4.74 l -10.11,-21.92 21.74,-10 a 3.5,3.5 0 0 0 -0.27,-6.46 L 338.78,0.21 a 3.51,3.51 0 0 0 -2.68,0.12 3.45,3.45 0 0 0 -1.8,2 l -13.1,36 v 0 L 313.89,58.4 A 211.18,211.18 0 0 0 11.74,213.4 36.55,36.55 0 0 0 20,243 37.17,37.17 0 0 0 34.84,253.57 V 271.8 H 32.11 C 18.75,271.8 9.38,276.12 4.25,284.65 0,291.72 0,299.94 0,304.85 c 0,18.06 9.55,29.67 25.89,32.1 a 53.33,53.33 0 0 0 -0.75,8.86 47.85,47.85 0 0 0 12.38,32.52 H 32 A 23.1,23.1 0 0 0 9,401.4 v 7.43 a 46.49,46.49 0 0 0 46.44,46.43 H 384.8 a 46.48,46.48 0 0 0 46.43,-46.43 V 401.4 A 23.1,23.1 0 0 0 408.16,378.33 Z M 339.68,8 l 57.71,21 -17.21,8 a 3.5,3.5 0 0 0 -1.71,4.65 l 8,17.36 L 329,37.43 Z m 83.52,294.67 c 0,10.62 -6.06,17.76 -11.71,17.76 a 19.42,19.42 0 0 1 -3,-0.21 52.84,52.84 0 0 0 -26.49,-23.49 8.45,8.45 0 0 0 -3.18,-0.62 v 0 c -19.11,0 -26.45,7.72 -32.34,13.92 -5.53,5.81 -9.9,10.4 -27,10.4 -14.87,0 -24.79,-3.79 -34.17,-8.43 l 22,-23.2 h 104.18 c 10.19,0 11.71,8.69 11.71,13.87 z m -184.46,-4 v 0 L 229,288.8 h 54.86 l -18.6,19.62 v 0 l -0.06,0.07 v 0 l -8.2,8.68 z M 51.86,256.06 H 388.34 V 271.8 H 51.86 Z M 33,232 A 19.62,19.62 0 0 1 28.54,216.13 194.19,194.19 0 0 1 308,74.47 l -14.23,39.1 a 3.49,3.49 0 0 0 2.09,4.48 3.37,3.37 0 0 0 1.2,0.21 3.5,3.5 0 0 0 3.29,-2.3 l 13.89,-38.18 a 195.07,195.07 0 0 1 97.42,138.3 19.61,19.61 0 0 1 -4.42,15.92 20.16,20.16 0 0 1 -15.37,7.11 H 48.33 A 20.13,20.13 0 0 1 33,232 Z m -16,72.9 c 0,-9.32 0,-16.05 15.11,-16.05 h 173 l 9.73,9.87 c -9.22,2.6 -16,6.78 -22.2,10.65 -9.59,6 -17.87,11.11 -35.13,11.11 -18,0 -25.15,-5.65 -32.7,-11.63 -7.37,-5.84 -15.72,-12.45 -31.68,-12.45 -17.8,0 -30,8.23 -39.81,14.85 -6.34,4.28 -11.83,8 -17.63,9 v 0 a 17.92,17.92 0 0 1 -3.09,0.27 C 21.66,320.43 17,315.77 17,304.85 Z m 25.14,41 a 35.76,35.76 0 0 1 1.45,-10.11 c 7.16,-2.26 13.29,-6.39 19.25,-10.41 9.1,-6.14 17.7,-11.94 30.3,-11.94 10,0 14.69,3.68 21.12,8.77 8.61,6.82 19.33,15.31 43.26,15.31 22.11,0 33.8,-7.27 44.1,-13.68 8.13,-5.05 15.26,-9.46 27.69,-10.43 l 21.73,22 a 8.44,8.44 0 0 0 6,2.54 h 0.08 a 8.51,8.51 0 0 0 6.09,-2.66 l 9.83,-10.38 c 11.7,6.08 25.17,12.57 46.37,12.57 24.42,0 32.69,-8.7 39.34,-15.68 4.7,-4.94 7.88,-8.28 18.35,-8.61 a 36,36 0 0 1 17.66,17.69 v 0 a 35.53,35.53 0 0 1 3.26,15 c 0,9.58 -3.86,15.32 -10.52,22 a 35.76,35.76 0 0 1 -25.43,10.53 h -284 C 57.25,378.33 42.14,364.65 42.14,345.81 Z m 372.09,63 A 29.46,29.46 0 0 1 384.8,438.33 H 55.41 A 29.47,29.47 0 0 1 26,408.83 v -7.43 a 6.07,6.07 0 0 1 6,-6.07 h 376.16 a 6.07,6.07 0 0 1 6.07,6.07 z"
           id="path10"
           style="fill:#ffffff" />
        <path
           class="cls-1"
           d="m 74.93,146 a 3.5,3.5 0 0 0 -5,0.22 C 59.22,158 44.05,192.56 39.92,214.75 a 3.5,3.5 0 0 0 2.8,4.08 2.86,2.86 0 0 0 0.65,0.06 3.49,3.49 0 0 0 3.43,-2.89 c 3.8,-20.41 18.63,-54.5 28.35,-65.14 A 3.5,3.5 0 0 0 74.93,146 Z"
           id="path11"
           style="fill:#ffffff" />
        <path
           class="cls-1"
           d="M 142.77,424.48 H 56.53 c -9.35,0 -16.12,-7.9 -16.12,-13.23 a 3.5,3.5 0 0 0 -7,0 c 0,9.35 10.1,20.23 23.12,20.23 h 86.24 a 3.5,3.5 0 0 0 0,-7 z"
           id="path12"
           style="fill:#ffffff" />
      </g>
    </g>
  </g>
</svg>
