<?xml version="1.0" standalone="no"?>
<!DOCTYPE svg PUBLIC "-//W3C//DTD SVG 20010904//EN"
 "http://www.w3.org/TR/2001/REC-SVG-20010904/DTD/svg10.dtd">
<svg version="1.0" xmlns="http://www.w3.org/2000/svg"
 width="1080.000000pt" height="1080.000000pt" viewBox="0 0 1080.000000 1080.000000"
 preserveAspectRatio="xMidYMid meet">

<g transform="translate(0.000000,1080.000000) scale(0.100000,-0.100000)"
fill="#000000" stroke="none">
<path d="M8040 6185 c0 -118 -2 -215 -5 -215 -2 0 -21 11 -41 25 -115 78 -284
22 -334 -111 -17 -45 -14 -128 8 -176 22 -51 76 -101 127 -118 60 -20 153 -9
200 23 l40 27 3 -30 c3 -26 7 -30 33 -30 l29 0 0 410 0 410 -30 0 -30 0 0
-215z m-90 -237 c89 -45 116 -164 55 -244 -94 -124 -295 -57 -295 98 0 132
122 205 240 146z"/>
<path d="M2698 6373 c7 -3 16 -2 19 1 4 3 -2 6 -13 5 -11 0 -14 -3 -6 -6z"/>
<path d="M3300 6338 c0 -24 -9 -450 -20 -948 -11 -498 -20 -920 -20 -937 0
-29 3 -33 25 -33 14 0 25 1 25 3 2 9 39 1774 40 1855 l0 102 -25 0 c-23 0 -25
-4 -25 -42z"/>
<path d="M2578 6353 c7 -3 16 -2 19 1 4 3 -2 6 -13 5 -11 0 -14 -3 -6 -6z"/>
<path d="M2484 6308 l-19 -23 23 19 c12 11 22 21 22 23 0 8 -8 2 -26 -19z"/>
<path d="M2435 6259 c-16 -11 -58 -28 -92 -40 -65 -21 -115 -65 -149 -131 -9
-18 -34 -56 -56 -85 -21 -29 -70 -105 -109 -170 -101 -168 -155 -240 -199
-268 -22 -14 -47 -40 -56 -57 -9 -18 -35 -52 -57 -75 l-41 -43 34 0 c25 0 31
3 21 9 -12 8 -12 12 2 26 10 9 17 21 17 26 0 6 5 7 10 4 6 -3 10 1 10 10 0 9
5 13 10 10 6 -3 10 2 10 12 0 10 12 27 26 38 14 11 34 28 44 37 10 9 21 14 24
11 3 -4 6 1 6 10 0 10 5 17 11 17 5 0 15 14 21 31 6 16 13 28 15 25 10 -10 33
23 33 48 0 23 4 27 25 26 15 -1 35 32 35 59 0 17 5 31 10 31 6 0 10 7 10 16 0
8 4 13 9 9 6 -3 15 5 22 17 7 13 20 30 31 39 10 9 18 26 18 38 0 11 5 21 10
21 6 0 10 8 10 18 0 14 2 15 10 2 7 -11 10 -7 10 18 0 18 4 31 9 28 5 -3 12 6
15 20 4 14 20 38 36 54 17 16 30 35 30 42 0 9 3 9 10 -2 7 -12 11 -10 19 10
l10 25 1 -30 c1 -16 4 -24 7 -17 2 6 9 10 14 6 5 -3 9 9 9 27 0 42 8 33 19
-22 l9 -44 1 48 1 47 25 -16 c24 -16 25 -15 25 4 0 22 17 39 27 28 4 -4 2 -11
-4 -17 -6 -6 -9 -18 -6 -25 3 -8 1 -14 -3 -14 -5 0 -10 -33 -11 -72 -1 -41 -6
-74 -12 -76 -6 -2 -11 -22 -11 -43 0 -22 -4 -38 -9 -35 -5 3 -7 16 -5 29 2 12
-3 0 -12 -27 -9 -27 -25 -58 -35 -69 -19 -21 -19 -21 -34 -1 -15 18 -15 17
-13 -12 2 -26 -5 -40 -40 -73 -23 -23 -44 -41 -46 -41 -3 0 -6 8 -9 18 -4 18
-7 10 -22 -61 -3 -17 -11 -27 -18 -24 -9 3 -11 -5 -8 -32 l4 -36 15 45 c11 33
41 71 116 148 56 56 113 123 127 147 14 25 28 43 30 41 2 -3 3 30 1 72 -2 52
3 101 17 152 10 41 18 76 17 76 0 1 -14 -7 -31 -17z"/>
<path d="M6851 6228 c-26 -68 -231 -640 -231 -643 0 -3 15 -5 34 -5 34 0 35 1
61 80 l27 80 153 0 153 0 27 -80 c27 -80 27 -80 61 -80 32 0 35 2 28 23 -4 12
-57 162 -119 332 l-112 310 -36 3 c-31 3 -38 -1 -46 -20z m109 -237 c33 -95
60 -176 60 -182 0 -11 -250 -13 -250 -1 -1 14 123 363 127 359 2 -2 30 -82 63
-176z"/>
<path d="M8230 6181 c-16 -31 4 -63 37 -59 34 4 52 32 37 56 -16 26 -60 28
-74 3z"/>
<path d="M2311 6044 c0 -11 3 -14 6 -6 3 7 2 16 -1 19 -3 4 -6 -2 -5 -13z"/>
<path d="M7317 6010 c-31 -17 -37 -17 -37 -5 0 10 -10 15 -30 15 l-30 0 0
-220 0 -220 30 0 30 0 0 161 0 161 34 34 c38 38 77 44 125 20 44 -23 51 -53
51 -221 l0 -155 30 0 30 0 0 169 c0 158 -1 170 -23 202 -51 76 -134 100 -210
59z"/>
<path d="M8532 6011 c-39 -25 -42 -25 -42 -6 0 10 -10 15 -30 15 l-30 0 0
-220 0 -220 30 0 30 0 0 138 c0 75 5 154 11 175 18 65 104 99 157 61 45 -31
52 -63 52 -224 l0 -150 30 0 30 0 0 157 c0 176 -13 222 -72 265 -45 31 -123
35 -166 9z"/>
<path d="M8979 6002 c-39 -20 -62 -41 -84 -77 -27 -43 -30 -57 -30 -124 0 -66
4 -82 28 -118 15 -24 46 -55 69 -70 37 -25 51 -28 122 -28 75 0 85 2 127 32
l45 31 28 -34 c22 -28 33 -34 66 -34 36 0 40 3 40 24 0 19 -7 26 -29 31 -43 9
-51 45 -51 226 l0 159 -30 0 c-25 0 -30 -4 -30 -24 l0 -25 -56 30 c-75 39
-141 40 -215 1z m206 -67 c48 -36 68 -85 62 -148 -5 -54 -28 -91 -78 -125 -28
-20 -44 -23 -92 -20 -61 5 -95 23 -131 72 -31 41 -29 139 2 184 55 76 164 93
237 37z"/>
<path d="M8240 5800 l0 -220 30 0 30 0 0 220 0 220 -30 0 -30 0 0 -220z"/>
<path d="M2900 5916 c0 -2 8 -10 18 -17 15 -13 16 -12 3 4 -13 16 -21 21 -21
13z"/>
<path d="M2470 5886 c0 -2 8 -10 18 -17 15 -13 16 -12 3 4 -13 16 -21 21 -21
13z"/>
<path d="M2950 5876 c0 -2 8 -10 18 -17 15 -13 16 -12 3 4 -13 16 -21 21 -21
13z"/>
<path d="M2510 5856 c0 -2 8 -10 18 -17 15 -13 16 -12 3 4 -13 16 -21 21 -21
13z"/>
<path d="M1382 5672 c-32 -65 -42 -103 -29 -108 10 -4 11 -22 5 -81 -5 -42
-13 -81 -18 -88 -6 -7 -5 -16 2 -23 9 -9 6 -12 -15 -12 -15 0 -30 -7 -33 -15
-4 -8 -12 -15 -18 -15 -17 0 -47 -33 -111 -125 -40 -59 -68 -87 -103 -106 -41
-23 -137 -127 -126 -138 2 -2 26 19 55 48 28 28 53 51 55 51 3 0 17 11 31 24
15 14 30 23 35 20 4 -3 8 2 8 11 0 9 4 14 9 11 5 -3 12 6 15 19 4 14 11 23 16
20 6 -3 10 3 10 14 0 12 9 26 20 33 11 7 20 18 20 25 0 7 5 13 10 13 6 0 10 6
10 13 0 20 42 50 72 52 22 1 28 -3 29 -19 1 -18 2 -18 9 4 4 14 8 19 9 11 1
-7 7 -11 16 -7 8 3 19 -3 25 -12 8 -13 9 -11 4 11 -7 31 -2 34 20 11 9 -8 16
-11 16 -5 0 19 17 12 28 -11 l11 -23 1 25 c1 23 2 23 10 5 5 -11 9 -33 9 -50
0 -26 -2 -27 -9 -10 -8 18 -9 18 -9 -5 -1 -19 -4 -22 -10 -11 -7 11 -11 4 -16
-25 -9 -54 -23 -86 -35 -79 -6 3 -11 -2 -11 -12 -1 -10 -4 -4 -8 12 -6 27 -8
25 -14 -22 -5 -35 -12 -53 -22 -53 -7 0 -20 -7 -29 -15 -8 -9 -17 -15 -18 -14
-8 5 -48 -13 -48 -22 0 -5 -6 -9 -13 -9 -7 0 -23 -9 -35 -20 -12 -11 -26 -20
-32 -20 -5 0 -10 -8 -10 -17 0 -9 -3 -14 -6 -11 -3 4 -23 -11 -45 -33 -21 -21
-43 -39 -49 -39 -5 0 -10 -9 -10 -19 0 -22 -27 -54 -40 -46 -4 3 -10 -5 -13
-18 -2 -12 -8 -31 -12 -42 -4 -11 8 -2 26 20 127 149 181 203 221 219 121 49
125 53 199 172 38 63 88 137 111 165 39 49 39 52 15 46 -21 -6 -26 -3 -31 18
-4 16 -13 25 -26 25 -13 0 -18 5 -14 15 4 9 0 15 -10 15 -9 0 -16 5 -16 11 0
5 -5 7 -10 4 -19 -12 -22 23 -4 50 17 26 17 28 0 41 -11 7 -24 15 -29 17 -6 2
-8 11 -4 21 5 11 13 16 23 12 18 -7 64 3 64 14 0 4 -10 5 -23 3 -33 -6 -52 19
-36 46 11 17 10 23 -5 40 -26 29 -48 26 -64 -7z m52 -170 c3 -4 -1 -19 -8 -33
-10 -20 -9 -26 3 -37 12 -10 13 -15 4 -18 -7 -3 -13 -10 -13 -16 0 -17 -30
-40 -45 -34 -21 8 -19 39 6 97 20 45 40 61 53 41z m81 -142 c3 -5 1 -10 -4
-10 -6 0 -11 5 -11 10 0 6 2 10 4 10 3 0 8 -4 11 -10z m5 -68 c0 -10 -3 -10
-14 0 -7 7 -11 19 -8 26 4 11 6 11 13 0 5 -7 9 -19 9 -26z"/>
<path d="M2100 5619 c0 -11 5 -17 10 -14 6 3 10 13 10 21 0 8 -4 14 -10 14 -5
0 -10 -9 -10 -21z"/>
<path d="M3080 5601 c0 -6 4 -13 10 -16 6 -3 7 1 4 9 -7 18 -14 21 -14 7z"/>
<path d="M2680 5597 c0 -2 15 -16 33 -33 l32 -29 -29 33 c-28 30 -36 37 -36
29z"/>
<path d="M2061 5574 c0 -11 3 -14 6 -6 3 7 2 16 -1 19 -3 4 -6 -2 -5 -13z"/>
<path d="M3155 5500 c21 -22 41 -40 44 -40 3 0 -13 18 -34 40 -21 22 -41 40
-44 40 -3 0 13 -18 34 -40z"/>
<path d="M2126 5521 c-4 -5 -3 -17 1 -26 4 -13 2 -16 -8 -13 -10 4 -17 -11
-25 -56 -11 -61 -11 -61 -23 -31 -7 16 -15 25 -19 19 -4 -5 -19 -17 -33 -26
-24 -15 -27 -15 -39 2 -8 11 -17 17 -21 14 -4 -2 -10 0 -14 6 -3 5 -10 10 -15
10 -5 0 11 -19 36 -42 25 -23 54 -58 65 -77 15 -28 18 -31 13 -11 -4 20 3 34
29 61 31 32 77 130 77 164 0 17 -16 20 -24 6z"/>
<path d="M2795 5500 c10 -11 20 -20 23 -20 3 0 -3 9 -13 20 -10 11 -20 20 -23
20 -3 0 3 -9 13 -20z"/>
<path d="M1860 5429 c-22 -6 -20 -7 13 -8 38 -1 47 3 25 11 -7 3 -24 1 -38 -3z"/>
<path d="M2538 5419 c-10 -5 -37 -16 -61 -23 -24 -7 -69 -34 -100 -59 -35 -29
-78 -53 -111 -62 -61 -18 -79 -34 -70 -61 4 -14 3 -15 -4 -6 -7 10 -17 4 -42
-28 -20 -26 -37 -38 -44 -33 -7 4 -3 0 7 -9 11 -10 25 -18 31 -18 22 0 54 -43
116 -154 42 -76 76 -122 116 -158 30 -28 69 -74 85 -102 26 -46 29 -48 29 -23
0 15 -3 27 -8 27 -4 0 -18 25 -31 55 -13 30 -28 52 -32 49 -5 -3 -9 0 -9 6 0
6 -4 8 -10 5 -5 -3 -10 1 -10 10 0 10 -5 13 -12 9 -8 -5 -9 0 -5 17 6 23 5 23
-8 5 -14 -19 -15 -18 -16 10 0 25 -2 26 -9 9 l-9 -20 0 20 c-1 17 -3 17 -11 5
-7 -12 -10 -8 -10 15 0 19 -8 36 -20 45 -15 11 -20 26 -21 60 0 25 -3 39 -6
32 -7 -18 -32 16 -33 44 0 13 -8 24 -20 27 -12 3 -20 14 -20 27 0 13 4 19 12
14 7 -4 8 -3 4 4 -4 6 -2 30 4 53 9 31 14 39 21 28 6 -9 9 -10 9 -2 0 7 7 10
15 7 8 -4 15 -1 15 6 0 7 8 9 19 5 12 -3 21 0 25 10 7 20 23 19 29 -2 4 -17 5
-17 6 0 0 9 8 17 16 17 9 0 15 9 16 23 0 21 1 21 9 2 8 -18 9 -17 9 7 1 30 20
49 22 21 1 -12 3 -10 8 7 7 24 13 27 74 33 9 1 18 8 18 17 1 8 5 2 9 -15 l8
-30 1 27 c2 55 19 35 30 -34 l10 -73 -3 70 c-2 39 -2 60 1 47 l4 -22 19 22 19
23 2 -25 1 -25 8 25 c5 17 8 19 9 8 1 -10 6 -18 11 -18 6 0 10 -9 10 -21 0
-11 5 -17 10 -14 6 4 10 -12 10 -39 0 -28 5 -46 11 -46 9 0 10 -27 6 -96 -6
-108 2 -135 70 -230 13 -19 27 -61 34 -105 7 -40 20 -82 28 -92 42 -51 61 -69
72 -65 14 5 -14 37 -46 55 -11 6 -24 40 -36 94 -13 56 -34 107 -62 154 l-42
70 0 107 c0 59 4 108 9 108 5 0 2 8 -6 18 -9 9 -21 35 -28 57 -7 22 -21 55
-32 73 -17 28 -25 32 -61 32 -23 0 -50 -5 -59 -11z"/>
<path d="M1750 5410 c0 -6 7 -10 15 -10 8 0 15 2 15 4 0 2 -7 6 -15 10 -8 3
-15 1 -15 -4z"/>
<path d="M2607 5332 c-2 -11 -1 -37 3 -58 7 -37 8 -36 9 19 1 58 -3 72 -12 39z"/>
<path d="M3490 4985 l0 -315 30 0 30 0 0 145 0 145 120 0 120 0 0 30 0 30
-120 0 -120 0 0 110 0 110 140 0 140 0 0 30 0 30 -170 0 -170 0 0 -315z"/>
<path d="M4266 5244 c-31 -30 -8 -69 36 -62 26 3 37 41 18 64 -16 18 -35 18
-54 -2z"/>
<path d="M2880 5166 c0 -2 8 -10 18 -17 15 -13 16 -12 3 4 -13 16 -21 21 -21
13z"/>
<path d="M1264 5129 c-3 -6 -1 -16 5 -22 8 -8 11 -5 11 11 0 24 -5 28 -16 11z"/>
<path d="M1351 5124 c0 -11 3 -14 6 -6 3 7 2 16 -1 19 -3 4 -6 -2 -5 -13z"/>
<path d="M4077 5085 c-22 -7 -50 -23 -63 -36 l-24 -22 0 31 c0 29 -3 32 -30
32 l-30 0 0 -210 0 -210 30 0 30 0 0 128 c0 101 4 134 18 161 23 45 59 71 110
78 38 5 42 8 42 34 0 34 -20 37 -83 14z"/>
<path d="M4611 5085 c-91 -29 -161 -137 -147 -227 19 -116 102 -188 216 -188
52 0 115 24 140 55 12 14 16 12 42 -20 23 -28 37 -35 64 -35 29 0 34 3 34 24
0 18 -6 26 -22 28 -40 5 -48 41 -48 211 l0 157 -25 0 c-20 0 -25 -5 -25 -25 0
-14 -2 -25 -4 -25 -2 0 -23 11 -47 24 -57 32 -122 39 -178 21z m129 -61 c100
-40 124 -171 47 -252 -135 -141 -356 59 -230 209 49 57 111 72 183 43z"/>
<path d="M5103 5085 c-63 -27 -83 -119 -39 -172 14 -16 54 -42 89 -57 69 -29
90 -55 76 -94 -17 -46 -91 -52 -136 -10 -20 18 -26 20 -49 9 -24 -11 -25 -13
-12 -33 23 -35 77 -58 136 -58 48 0 58 4 88 34 28 28 34 41 34 78 -1 58 -21
82 -110 126 -67 33 -75 40 -78 68 -6 57 55 84 106 49 17 -12 26 -13 42 -5 29
16 21 31 -30 58 -51 25 -72 27 -117 7z"/>
<path d="M2960 5055 c19 -19 36 -35 39 -35 3 0 -10 16 -29 35 -19 19 -36 35
-39 35 -3 0 10 -16 29 -35z"/>
<path d="M4260 4880 l0 -210 30 0 30 0 0 210 0 210 -30 0 -30 0 0 -210z"/>
<path d="M3030 4993 c13 -18 25 -33 27 -33 8 0 -17 38 -33 51 -11 9 -9 2 6
-18z"/>
<path d="M2496 4638 c24 -41 84 -125 95 -135 8 -6 25 -14 39 -17 23 -6 23 -6
8 7 -10 8 -18 22 -18 31 0 10 -4 15 -8 12 -14 -9 -62 41 -63 65 0 13 -3 18 -6
12 -3 -10 -8 -10 -19 1 -8 8 -14 19 -14 25 0 6 -5 11 -11 11 -5 0 -7 -6 -3
-12z"/>
<path d="M2675 4460 c10 -11 20 -20 23 -20 3 0 -3 9 -13 20 -10 11 -20 20 -23
20 -3 0 3 -9 13 -20z"/>
</g>
</svg>
